<?xml version="1.0" ?><svg id="Слой_1" style="enable-background:new 0 0 181.4 181.4;" version="1.1" viewBox="0 0 181.4 181.4" xml:space="preserve" xmlns="http://www.w3.org/2000/svg" xmlns:xlink="http://www.w3.org/1999/xlink"><style type="text/css">
	.st0{fill-rule:evenodd;clip-rule:evenodd;fill:#FFFFFF;}
	.st1{fill-rule:evenodd;clip-rule:evenodd;fill:#3FC0F0;}
	.st2{fill-rule:evenodd;clip-rule:evenodd;fill:#3864AD;}
	.st3{fill:#3864AD;}
	.st4{fill-rule:evenodd;clip-rule:evenodd;fill:#FFCC07;}
	.st5{fill:none;stroke:#3864AD;stroke-width:5.6693;stroke-linecap:round;stroke-linejoin:round;stroke-miterlimit:22.9256;}
</style><g><path class="st0" d="M90.7,11.3c43.8,0,79.4,35.5,79.4,79.4c0,43.8-35.5,79.4-79.4,79.4c-43.8,0-79.4-35.5-79.4-79.4   C11.3,46.9,46.9,11.3,90.7,11.3"/><path class="st4" d="M121.9,70.9c0-1.6,1.3-2.8,2.8-2.8c1.6,0,2.8,1.3,2.8,2.8v2.8c0,1.6-1.3,2.8-2.8,2.8c-1.6,0-2.8-1.3-2.8-2.8   V70.9z M51,82.2c0-1.6,1.3-2.8,2.8-2.8s2.8,1.3,2.8,2.8V85c0,1.6-1.3,2.8-2.8,2.8S51,86.6,51,85V82.2z M90.7,136.1   c25,0,45.4-20.3,45.4-45.4c0-20.4-13.5-37.7-32.1-43.4l6.6,9.4H98.4l17.9,25.5H104l17.9,25.5H99.2h-17H59.5l17.9-25.5H65.2   l17.9-25.5H70.9l6.6-9.4C58.9,53,45.4,70.3,45.4,90.7C45.4,115.8,65.7,136.1,90.7,136.1z"/><path class="st4" d="M39.7,68c0-1.6,1.3-2.8,2.8-2.8s2.8,1.3,2.8,2.8v2.8c0,1.6-1.3,2.8-2.8,2.8s-2.8-1.3-2.8-2.8V68z"/><path class="st4" d="M138.9,96.4c0-1.6,1.3-2.8,2.8-2.8c1.6,0,2.8,1.3,2.8,2.8v2.8c0,1.6-1.3,2.8-2.8,2.8c-1.6,0-2.8-1.3-2.8-2.8   V96.4z"/><path class="st4" d="M28.3,93.5c0-1.6,1.3-2.8,2.8-2.8c1.6,0,2.8,1.3,2.8,2.8v2.8c0,1.6-1.3,2.8-2.8,2.8c-1.6,0-2.8-1.3-2.8-2.8   V93.5z"/><path class="st4" d="M150.2,73.7c0-1.6,1.3-2.8,2.8-2.8c1.6,0,2.8,1.3,2.8,2.8v2.8c0,1.6-1.3,2.8-2.8,2.8c-1.6,0-2.8-1.3-2.8-2.8   V73.7z"/><polygon class="st1" points="79.4,107.7 82.2,107.7 99.2,107.7 121.9,107.7 104,82.2 116.2,82.2 98.4,56.7 110.6,56.7 90.9,28.7    90.7,28.3  "/><path class="st2" d="M150.8,30.6C135.5,15.2,114.2,5.7,90.7,5.7c-23.5,0-44.7,9.5-60.1,24.9C15.2,46,5.7,67.2,5.7,90.7   c0,23.5,9.5,44.7,24.9,60.1c15.4,15.4,36.6,24.9,60.1,24.9c23.5,0,44.7-9.5,60.1-24.9c15.4-15.4,24.9-36.6,24.9-60.1   C175.7,67.2,166.2,46,150.8,30.6 M110.8,79.4L96.9,59.5h-3.4c-1.6,0-2.8-1.3-2.8-2.8c0-1.6,1.3-2.8,2.8-2.8h11.6L90.7,33.3   L76.3,53.9h6.8v0c0.6,0,1.1,0.2,1.6,0.5c1.3,0.9,1.6,2.7,0.7,3.9L70.6,79.4h6.8v0c0.6,0,1.1,0.2,1.6,0.5c1.3,0.9,1.6,2.7,0.7,3.9   L65,104.9h17.2h17h17.2L102.6,85h-9c-1.6,0-2.8-1.3-2.8-2.8s1.3-2.8,2.8-2.8H110.8z M73.7,144.6c-1.6,0-2.8-1.3-2.8-2.8   c0-1.6,1.3-2.8,2.8-2.8h34c1.6,0,2.8,1.3,2.8,2.8c0,1.6-1.3,2.8-2.8,2.8H73.7z M85,127.6h11.3v-17H85V127.6z M45.4,133.2   c-1.6,0-2.8-1.3-2.8-2.8c0-1.6,1.3-2.8,2.8-2.8h34v-17H59.5c-1.6,0-2.8-1.3-2.8-2.8c0-0.7,0.3-1.3,0.7-1.8L72,85h-6.8   c-1.6,0-2.8-1.3-2.8-2.8c0-0.7,0.3-1.3,0.7-1.8l14.6-20.8h-6.8c-1.6,0-2.8-1.3-2.8-2.8c0-0.7,0.3-1.3,0.7-1.8l19.7-28.1   c0.9-1.3,2.7-1.6,3.9-0.7c0.3,0.2,0.5,0.5,0.7,0.8l19.8,28.3c0.9,1.3,0.6,3-0.7,3.9c-0.5,0.3-1.1,0.5-1.6,0.5v0h-6.8l14.7,21.1   c0.9,1.3,0.6,3-0.7,3.9c-0.5,0.3-1.1,0.5-1.6,0.5v0h-6.8l14.7,21.1c0.9,1.3,0.6,3-0.7,3.9c-0.5,0.3-1.1,0.5-1.6,0.5v0H102v17h34   c1.6,0,2.8,1.3,2.8,2.8c0,1.6-1.3,2.8-2.8,2.8H99.2h-17H45.4z M90.7,0c50.1,0,90.7,40.6,90.7,90.7c0,50.1-40.6,90.7-90.7,90.7   S0,140.8,0,90.7C0,40.6,40.6,0,90.7,0z"/></g></svg>